Coordinates
version=1
nRows=54
nColumns=12
inDegrees=yes

Units are S.I. units (second, meters, Newtons, ...)
Angles are in degrees

endheader
time	SC_y	SC_z	SC_x	AC_y	AC_z	AC_x	GH_y	GH_z	GH_yy	EL_x	PS_y
       0.0              -40.74          12.69          76.82          63.76          3.893        -0.7884          7.022          44.52          117.5          125.1          42.86
   0.01818              -40.74          12.69          76.81          63.76          3.894        -0.7909          7.026          44.52          117.5          125.1          42.87
   0.03636              -40.74          12.69          76.81          63.76          3.895        -0.7936          7.031          44.51          117.4          125.1          42.88
   0.05455              -40.74          12.69          76.81          63.76          3.895        -0.7964          7.036           44.5          117.4          125.1          42.89
   0.07273              -40.74          12.69          76.81          63.76          3.896        -0.7995          7.041          44.49          117.4          125.1           42.9
   0.09091              -40.74          12.69           76.8          63.76          3.897        -0.8027          7.046          44.48          117.4          125.1          42.91
    0.1091              -40.74          12.69           76.8          63.76          3.898        -0.8061          7.052          44.46          117.4          125.0          42.92
    0.1273              -40.74          12.69           76.8          63.76          3.899        -0.8098          7.059          44.45          117.4          125.0          42.94
    0.1455              -40.74          12.69          76.79          63.76            3.9        -0.8138          7.066          44.44          117.4          125.0          42.95
    0.1636              -40.75          12.69          76.79          63.76          3.901         -0.818          7.073          44.42          117.4          125.0          42.97
    0.1818              -40.75          12.69          76.78          63.76          3.902        -0.8225          7.081          44.41          117.4          124.9          42.98
       0.2              -40.75          12.69          76.78          63.76          3.903        -0.8274          7.089          44.39          117.3          124.9           43.0
    0.2182              -40.75          12.69          76.77          63.76          3.904        -0.8327          7.098          44.37          117.3          124.9          43.02
    0.2364              -40.75          12.69          76.77          63.76          3.906        -0.8384          7.108          44.36          117.3          124.8          43.04
    0.2545              -40.75          12.69          76.76          63.77          3.907        -0.8445          7.119          44.33          117.3          124.8          43.06
    0.2727              -40.75          12.69          76.75          63.77          3.909        -0.8512           7.13          44.31          117.3          124.8          43.08
    0.2909              -40.75          12.69          76.75          63.77          3.911        -0.8585          7.143          44.29          117.3          124.7          43.11
    0.3091              -40.75          12.69          76.74          63.77          3.913        -0.8664          7.157          44.26          117.2          124.7          43.14
    0.3273              -40.75          12.69          76.73          63.77          3.915         -0.875          7.172          44.23          117.2          124.6          43.17
    0.3455              -40.76          12.69          76.72          63.77          3.917        -0.8845          7.188           44.2          117.2          124.6           43.2
    0.3636              -40.76          12.69          76.71          63.77           3.92        -0.8948          7.206          44.16          117.2          124.5          43.24
    0.3818              -40.76          12.69           76.7          63.77          3.923        -0.9063          7.226          44.13          117.1          124.4          43.28
       0.4              -40.76          12.69          76.68          63.77          3.926        -0.9189          7.247          44.08          117.1          124.4          43.33
    0.4182              -40.76          12.69          76.67          63.77          3.929        -0.9329          7.272          44.04          117.0          124.3          43.38
    0.4364              -40.77          12.69          76.65          63.78          3.933        -0.9484          7.298          43.98          117.0          124.2          43.43
    0.4545              -40.77          12.69          76.64          63.78          3.937        -0.9658          7.328          43.92          117.0          124.1          43.49
    0.4727              -40.77          12.69          76.62          63.78          3.942        -0.9852          7.362          43.86          116.9          124.0          43.56
    0.4909              -40.78          12.69          76.59          63.78          3.948         -1.007            7.4          43.78          116.8          123.8          43.64
    0.5091              -40.78          12.69          76.57          63.78          3.954         -1.032          7.443           43.7          116.8          123.7          43.73
    0.5273              -40.79          12.69          76.54          63.79          3.961          -1.06          7.491          43.61          116.7          123.5          43.83
    0.5455              -40.79          12.69          76.51          63.79          3.969         -1.092          7.546           43.5          116.6          123.3          43.94
    0.5636               -40.8          12.69          76.47          63.79          3.978         -1.129           7.61          43.37          116.5          123.1          44.07
    0.5818               -40.8          12.69          76.43           63.8          3.988         -1.171          7.683          43.23          116.4          122.9          44.22
       0.6              -40.81          12.69          76.38           63.8          4.001          -1.22          7.769          43.06          116.2          122.6           44.4
    0.6182              -40.82          12.69          76.32          63.81          4.015         -1.278          7.868          42.87          116.1          122.2           44.6
    0.6364              -40.83          12.69          76.25          63.81          4.032         -1.346          7.986          42.64          115.9          121.8          44.85
    0.6545              -40.85          12.69          76.17          63.82          4.052         -1.427          8.126          42.36          115.6          121.4          45.13
    0.6727              -40.86          12.69          76.07          63.83          4.076         -1.523          8.293          42.04          115.4          120.8          45.48
    0.6909              -40.88          12.69          75.95          63.84          4.105         -1.641          8.496          41.64          115.0          120.1          45.89
    0.7091              -40.91          12.69           75.8          63.86          4.141         -1.784          8.743          41.15          114.6          119.3           46.4
    0.7273              -40.94          12.69          75.62          63.87          4.185          -1.96          9.049          40.56          114.1          118.2          47.03
    0.7455              -40.97          12.69           75.4          63.89          4.239          -2.18          9.429          39.81          113.5          116.9          47.82
    0.7636              -41.02          12.69          75.12          63.92          4.308         -2.458          9.909          38.87          112.7          115.3           48.8
    0.7818              -41.08          12.69          74.76          63.95          4.396         -2.811          10.52          37.68          111.7          113.2          50.06
       0.8              -41.16          12.69           74.3           64.0          4.508         -3.262           11.3          36.15          110.4          110.5          51.67
    0.8182              -41.25          12.69          73.71          64.05          4.652         -3.841           12.3          34.19          108.8          107.1          53.73
    0.8364              -41.38          12.69          72.96          64.12          4.836         -4.581          13.58          31.68          106.7          102.7          56.36
    0.8545              -41.53          12.69          72.01          64.21          5.067         -5.512          15.19          28.53          104.0           97.2          59.68
    0.8727              -41.73          12.68          70.85          64.32          5.349         -6.645          17.15          24.69          100.8          90.49          63.71
    0.8909              -41.95          12.68          69.51          64.45          5.676          -7.96          19.42          20.24           97.1          82.71          68.39
    0.9091              -42.19          12.68          68.07          64.58           6.03         -9.383          21.89          15.42          93.06           74.3          73.46
    0.9273              -42.42          12.68          66.62          64.72          6.383         -10.81          24.35           10.6          89.02          65.88          78.52
    0.9455              -42.65          12.67          65.28          64.84           6.71         -12.12          26.62           6.15          85.29           58.1           83.2
    0.9636              -42.84          12.67          64.12          64.95          6.992         -13.25          28.58          2.311          82.07           51.4          87.24
